<?xml version="1.0" standalone="no"?><!DOCTYPE svg PUBLIC "-//W3C//DTD SVG 1.1//EN" "http://www.w3.org/Graphics/SVG/1.1/DTD/svg11.dtd"><svg class="icon" style="" viewBox="0 0 1024 1024" version="1.1" xmlns="http://www.w3.org/2000/svg" p-id="6025" xmlns:xlink="http://www.w3.org/1999/xlink" width="200" height="200"><defs><style type="text/css"><![CDATA[

]]></style></defs><path d="M699.231265 876.946806c-38.990013-9.15859 36.470633-366.735545-15.640212-423.523923l-61.673641 0 0 36.942377-73.913407 0 0-36.942377L492.971621 453.422883c-12.657274 32.473599-54.387701 117.455085-159.0269 168.865989-131.35363 64.531735-85.300758 188.995445-92.177376 209.729675 0 0-168.255075 76.084862-161.336502-96.797603 0 0-43.791365 225.868237 191.292768 182.070732 0 0-5.53097 20.747533 15.660678 23.058159 21.204951 2.310625 274.718829 0 274.718829 0s80.672344-11.532661 0-89.880053c0 0 42.661635-32.259728 41.487903-50.717102l0.007163 133.671419c0 0 99.073436 10.387581 116.359125-1.14508C737.241974 920.746358 738.414683 886.190331 699.231265 876.946806zM935.460478 179.001837C893.964388 33.054837 741.857085 53.005214 715.738217 71.454402c0 0-150.553924-63.005986-238.907205 6.924713 0 0-90.948385-66.772776-185.471179-32.987299-94.508467 33.792641-219.908502 187.711196-163.689083 223.7459 30.476105 19.532869 95.042633 27.450189 124.443243-4.579295 40.662095-53.152571 131.458007-66.280566 160.192446-103.237269 0 0 18.444071 117.54616 64.525596 156.743904 0 0-64.525596 73.726142 20.747533 122.145921 0 0-0.069585 0.207731-0.152473 0.527003l50.577932 0 73.913407 0 75.04416 0c18.145266-17.784038 44.776809-55.496965 23.363104-111.141286 0 0 64.525596-76.834946 44.554752-192.083783 72.262814 93.730755-47.580668 219.735563 52.278667 268.883937C897.025097 429.455006 976.954521 324.975443 935.460478 179.001837z" p-id="6026"></path></svg>